<svg xmlns="http://www.w3.org/2000/svg" xmlns:xlink="http://www.w3.org/1999/xlink" viewBox="0 0 722 977">
    <defs>
        <filter id="bswqs6gcga" width="118.2%" height="136.4%" x="-9.1%" y="-13%" filterUnits="objectBoundingBox">
            <feOffset dy="4" in="SourceAlpha" result="shadowOffsetOuter1"/>
            <feGaussianBlur in="shadowOffsetOuter1" result="shadowBlurOuter1" stdDeviation="4"/>
            <feColorMatrix in="shadowBlurOuter1" values="0 0 0 0 0 0 0 0 0 0 0 0 0 0 0 0 0 0 0.16 0"/>
        </filter>
        <path id="w414fplezb" d="M76.875 14c42.457 0 76.875 34.418 76.875 76.875l-.001.125H0v-.125C0 48.418 34.418 14 76.875 14z"/>
    </defs>
    <g fill="none" fill-rule="evenodd">
        <g>
            <g transform="translate(-719) translate(720)">
                <g>
                    <path fill="#100A40" d="M0 0H720V976H0z"/>
                    <path stroke="#FFF" d="M0 49H103V976H0zM103 49H206V976H103zM206 49H309V976H206zM309 49H411V976H309zM411 49H514V976H411zM514 49H617V976H514zM617 49H720V976H617z" opacity=".1"/>
                    <path stroke="#FFF" d="M0 49H720V152H0zM0 152H720V255H0zM0 255H720V358H0zM0 358H720V461H0zM0 461H720V564H0zM0 564H720V667H0zM0 667H720V770H0zM0 770H720V873H0zM0 873H720V976H0z" opacity=".1"/>
                </g>
                <g>
                    <path stroke="#FFD87D" d="M37.983.5c.713 0 1.39.216 1.956.598.566.381 1.021.928 1.288 1.59h0l25.084 62c.169.416.256.862.256 1.312 0 .966-.392 1.841-1.025 2.475-.634.633-1.509 1.025-2.475 1.025h0-33.495c-.725 0-1.413-.223-1.984-.616-.57-.393-1.025-.955-1.285-1.632h0L1.507 2.537c-.065-.172-.099-.354-.099-.537 0-.414.168-.79.44-1.06.27-.272.646-.44 1.06-.44h0z" transform="matrix(-1 0 0 1 143 326)"/>
                    <g fill="#100A40">
                        <path stroke="#E98C4C" d="M4.038 1.188h1.398c2.4 0 4.518 1.566 5.222 3.86.483 1.576-.402 3.245-1.978 3.729-.284.087-.579.131-.876.131H6.406c-2.4 0-4.518-1.566-5.222-3.86-.483-1.576.402-3.246 1.978-3.729.284-.087.58-.131.876-.131z" transform="matrix(-1 0 0 1 143 326) translate(12 4)"/>
                        <path stroke="#FFF" d="M6.028.5c1.09 0 2.116.356 2.95.972.833.616 1.474 1.493 1.794 2.535.201.656.117 1.331-.18 1.893-.299.562-.81 1.01-1.467 1.211-.236.073-.482.11-.729.11h0-1.398c-1.09 0-2.116-.356-2.95-.972-.833-.617-1.474-1.493-1.794-2.535-.2-.656-.117-1.332.18-1.894.299-.561.811-1.01 1.467-1.21.236-.073.482-.11.729-.11h0z" transform="matrix(-1 0 0 1 143 326) translate(12 4)"/>
                    </g>
                    <g fill="#100A40">
                        <path stroke="#E98C4C" d="M4.038 1.188h1.398c2.4 0 4.518 1.566 5.222 3.86.483 1.576-.402 3.245-1.978 3.729-.284.087-.579.131-.876.131H6.406c-2.4 0-4.518-1.566-5.222-3.86-.483-1.576.402-3.246 1.978-3.729.284-.087.58-.131.876-.131z" transform="matrix(-1 0 0 1 143 326) translate(19 21)"/>
                        <path stroke="#FFF" d="M6.028.5c1.09 0 2.116.356 2.95.972.833.616 1.474 1.493 1.794 2.535.201.656.117 1.331-.18 1.893-.299.562-.81 1.01-1.467 1.211-.236.073-.482.11-.729.11h0-1.398c-1.09 0-2.116-.356-2.95-.972-.833-.617-1.474-1.493-1.794-2.535-.2-.656-.117-1.332.18-1.894.299-.561.811-1.01 1.467-1.21.236-.073.482-.11.729-.11h0z" transform="matrix(-1 0 0 1 143 326) translate(19 21)"/>
                    </g>
                    <g fill="#100A40">
                        <path stroke="#E98C4C" d="M4.038 1.188h1.398c2.4 0 4.518 1.566 5.222 3.86.483 1.576-.402 3.245-1.978 3.729-.284.087-.579.131-.876.131H6.406c-2.4 0-4.518-1.566-5.222-3.86-.483-1.576.402-3.246 1.978-3.729.284-.087.58-.131.876-.131z" transform="matrix(-1 0 0 1 143 326) translate(25 37)"/>
                        <path stroke="#FFF" d="M6.028.5c1.09 0 2.116.356 2.95.972.833.616 1.474 1.493 1.794 2.535.201.656.117 1.331-.18 1.893-.299.562-.81 1.01-1.467 1.211-.236.073-.482.11-.729.11h0-1.398c-1.09 0-2.116-.356-2.95-.972-.833-.617-1.474-1.493-1.794-2.535-.2-.656-.117-1.332.18-1.894.299-.561.811-1.01 1.467-1.21.236-.073.482-.11.729-.11h0z" transform="matrix(-1 0 0 1 143 326) translate(25 37)"/>
                    </g>
                    <g fill="#100A40">
                        <path stroke="#E98C4C" d="M4.038 1.188h1.398c2.4 0 4.518 1.566 5.222 3.86.483 1.576-.402 3.245-1.978 3.729-.284.087-.579.131-.876.131H6.406c-2.4 0-4.518-1.566-5.222-3.86-.483-1.576.402-3.246 1.978-3.729.284-.087.58-.131.876-.131z" transform="matrix(-1 0 0 1 143 326) translate(32 53)"/>
                        <path stroke="#FFF" d="M6.028.5c1.09 0 2.116.356 2.95.972.833.616 1.474 1.493 1.794 2.535.201.656.117 1.331-.18 1.893-.299.562-.81 1.01-1.467 1.211-.236.073-.482.11-.729.11h0-1.398c-1.09 0-2.116-.356-2.95-.972-.833-.617-1.474-1.493-1.794-2.535-.2-.656-.117-1.332.18-1.894.299-.561.811-1.01 1.467-1.21.236-.073.482-.11.729-.11h0z" transform="matrix(-1 0 0 1 143 326) translate(32 53)"/>
                    </g>
                    <g fill="#100A40">
                        <path stroke="#E98C4C" d="M4.038 1.188h1.398c2.4 0 4.518 1.566 5.222 3.86.483 1.576-.402 3.245-1.978 3.729-.284.087-.579.131-.876.131H6.406c-2.4 0-4.518-1.566-5.222-3.86-.483-1.576.402-3.246 1.978-3.729.284-.087.58-.131.876-.131z" transform="matrix(-1 0 0 1 143 326) translate(28 4)"/>
                        <path stroke="#FFF" d="M6.028.5c1.09 0 2.116.356 2.95.972.833.616 1.474 1.493 1.794 2.535.201.656.117 1.331-.18 1.893-.299.562-.81 1.01-1.467 1.211-.236.073-.482.11-.729.11h0-1.398c-1.09 0-2.116-.356-2.95-.972-.833-.617-1.474-1.493-1.794-2.535-.2-.656-.117-1.332.18-1.894.299-.561.811-1.01 1.467-1.21.236-.073.482-.11.729-.11h0z" transform="matrix(-1 0 0 1 143 326) translate(28 4)"/>
                    </g>
                    <g fill="#100A40">
                        <path stroke="#E98C4C" d="M4.038 1.188h1.398c2.4 0 4.518 1.566 5.222 3.86.483 1.576-.402 3.245-1.978 3.729-.284.087-.579.131-.876.131H6.406c-2.4 0-4.518-1.566-5.222-3.86-.483-1.576.402-3.246 1.978-3.729.284-.087.58-.131.876-.131z" transform="matrix(-1 0 0 1 143 326) translate(35 21)"/>
                        <path stroke="#FFF" d="M6.028.5c1.09 0 2.116.356 2.95.972.833.616 1.474 1.493 1.794 2.535.201.656.117 1.331-.18 1.893-.299.562-.81 1.01-1.467 1.211-.236.073-.482.11-.729.11h0-1.398c-1.09 0-2.116-.356-2.95-.972-.833-.617-1.474-1.493-1.794-2.535-.2-.656-.117-1.332.18-1.894.299-.561.811-1.01 1.467-1.21.236-.073.482-.11.729-.11h0z" transform="matrix(-1 0 0 1 143 326) translate(35 21)"/>
                    </g>
                    <g fill="#100A40">
                        <path stroke="#E98C4C" d="M4.038 1.188h1.398c2.4 0 4.518 1.566 5.222 3.86.483 1.576-.402 3.245-1.978 3.729-.284.087-.579.131-.876.131H6.406c-2.4 0-4.518-1.566-5.222-3.86-.483-1.576.402-3.246 1.978-3.729.284-.087.58-.131.876-.131z" transform="matrix(-1 0 0 1 143 326) translate(41 37)"/>
                        <path stroke="#FFF" d="M6.028.5c1.09 0 2.116.356 2.95.972.833.616 1.474 1.493 1.794 2.535.201.656.117 1.331-.18 1.893-.299.562-.81 1.01-1.467 1.211-.236.073-.482.11-.729.11h0-1.398c-1.09 0-2.116-.356-2.95-.972-.833-.617-1.474-1.493-1.794-2.535-.2-.656-.117-1.332.18-1.894.299-.561.811-1.01 1.467-1.21.236-.073.482-.11.729-.11h0z" transform="matrix(-1 0 0 1 143 326) translate(41 37)"/>
                    </g>
                    <g fill="#100A40">
                        <path stroke="#E98C4C" d="M4.038 1.188h1.398c2.4 0 4.518 1.566 5.222 3.86.483 1.576-.402 3.245-1.978 3.729-.284.087-.579.131-.876.131H6.406c-2.4 0-4.518-1.566-5.222-3.86-.483-1.576.402-3.246 1.978-3.729.284-.087.58-.131.876-.131z" transform="matrix(-1 0 0 1 143 326) translate(49 53)"/>
                        <path stroke="#FFF" d="M6.028.5c1.09 0 2.116.356 2.95.972.833.616 1.474 1.493 1.794 2.535.201.656.117 1.331-.18 1.893-.299.562-.81 1.01-1.467 1.211-.236.073-.482.11-.729.11h0-1.398c-1.09 0-2.116-.356-2.95-.972-.833-.617-1.474-1.493-1.794-2.535-.2-.656-.117-1.332.18-1.894.299-.561.811-1.01 1.467-1.21.236-.073.482-.11.729-.11h0z" transform="matrix(-1 0 0 1 143 326) translate(49 53)"/>
                    </g>
                </g>
                <g fill="#100A40" transform="translate(164 153)">
                    <ellipse cx="40.369" cy="40.417" stroke="#4F3DD1" rx="39.869" ry="39.917"/>
                    <path stroke="#8172F1" d="M39.705.505l.164 79.824-.16-.001c-10.866-.176-20.676-4.706-27.765-11.922C4.866 61.202.5 51.32.5 40.416c0-10.903 4.366-20.785 11.444-27.989C19.034 5.211 28.843.682 39.705.505h0z"/>
                </g>
                <g transform="translate(437 250)">
                    <g>
                        <path fill="#FFD87D" stroke="#FFD87D" d="M7 0h11v14H7c-3.866 0-7-3.134-7-7s3.134-7 7-7z" transform="translate(58)"/>
                        <path fill="#7273F1" d="M25 0h11v14H25c-3.866 0-7-3.134-7-7s3.134-7 7-7z" transform="translate(58) matrix(-1 0 0 1 54 0)"/>
                    </g>
                    <circle cx="77" cy="91" r="20" fill="#E98C4C"/>
                    <g>
                        <use fill="#000" filter="url(#bswqs6gcga)" xlink:href="#w414fplezb"/>
                        <use fill="#4F3DD1" xlink:href="#w414fplezb"/>
                    </g>
                </g>
                <g>
                    <path fill="#FFD87D" d="M7 0h11v14H7c-3.866 0-7-3.134-7-7s3.134-7 7-7z" transform="scale(1 -1) rotate(45 1074.649 420.678)"/>
                    <path fill="#FFF" d="M25 0h11v14H25c-3.866 0-7-3.134-7-7s3.134-7 7-7z" transform="scale(1 -1) rotate(45 1074.649 420.678) matrix(-1 0 0 1 54 0)"/>
                </g>
                <g>
                    <path fill="#E98C4C" d="M7 0h11v14H7c-3.866 0-7-3.134-7-7s3.134-7 7-7z" transform="rotate(45 112.547 597.163)"/>
                    <path fill="#7273F1" d="M25 0h11v14H25c-3.866 0-7-3.134-7-7s3.134-7 7-7z" transform="rotate(45 112.547 597.163) matrix(-1 0 0 1 54 0)"/>
                </g>
                <g>
                    <path fill="#FFD87D" d="M0 0H115V51H0z" transform="translate(51 21)"/>
                    <path fill="#FFF" d="M9 10H52V19H9zM9 21H52V30H9z" transform="translate(51 21)"/>
                    <path fill="#FFF" fill-rule="nonzero" d="M98.147 27.43c.216-.8 1.04-1.274 1.839-1.057.8.216 1.273 1.04 1.057 1.839-.924 3.418-2.506 6.303-4.744 8.633-1.629 1.695-4.636 3.47-9.073 5.406-.76.33-1.644-.016-1.975-.775-.331-.76.016-1.644.775-1.975l.858-.38c3.626-1.638 6.057-3.11 7.252-4.355 1.879-1.955 3.215-4.393 4.01-7.337z" transform="translate(51 21)"/>
                    <path fill="#FFF" fill-rule="nonzero" d="M80.52 9.609c.217-.8 1.04-1.273 1.84-1.057.8.216 1.273 1.04 1.057 1.84-.924 3.417-2.506 6.303-4.744 8.632-1.629 1.696-4.636 3.47-9.073 5.406-.76.331-1.644-.016-1.975-.775-.331-.76.016-1.643.775-1.975 4.102-1.79 6.823-3.394 8.11-4.734 1.879-1.956 3.215-4.394 4.01-7.337z" transform="translate(51 21) rotate(180 75.484 16.528)"/>
                    <path fill="#FFF" d="M97 16c2.761 0 5 2.239 5 5 0 1.98-1.15 3.69-2.82 4.5 1.67.81 2.82 2.52 2.82 4.5 0 2.761-2.239 5-5 5-2.05 0-3.812-1.234-4.584-3H76.584c-.772 1.766-2.534 3-4.584 3-2.761 0-5-2.239-5-5 0-1.98 1.15-3.69 2.82-4.5C68.15 24.69 67 22.98 67 21c0-2.761 2.239-5 5-5 2.419 0 4.437 1.718 4.9 4h15.2c.463-2.282 2.481-4 4.9-4z" transform="translate(51 21) rotate(-45 84.5 25.5)"/>
                </g>
                <path fill="#4F3DD1" d="M718.402 233.656C674.428 232.942 639 197.03 639 152.833 639 108.19 675.147 72 719.737 72v161.667z"/>
                <ellipse cx="718.369" cy="153.417" fill="#FFD87D" stroke="#FFD87D" rx="40.369" ry="40.417"/>
                <path fill="#100A40" stroke="#8172F1" d="M463 582.5v255H311V658.268c0-20.696 8.323-39.453 21.814-53.128 13.362-13.544 31.795-22.101 52.228-22.615l.697-.015 1.261-.01h76zM378 639c-5.385 0-10.26 2.183-13.789 5.711-3.528 3.53-5.711 8.404-5.711 13.789s2.183 10.26 5.711 13.789c3.53 3.528 8.404 5.711 13.789 5.711s10.26-2.183 13.789-5.711c3.528-3.53 5.711-8.404 5.711-13.789s-2.183-10.26-5.711-13.789C388.259 641.183 383.385 639 378 639z"/>
                <g transform="translate(164 501)">
                    <ellipse cx="40.369" cy="40.417" fill="#4F3DD1" rx="40.369" ry="40.417"/>
                    <path fill="#8172F1" d="M39.701 80.828C17.714 80.47 0 62.515 0 40.417 0 18.095 18.074 0 40.369 0v80.833z"/>
                    <path fill="#FFF" d="M55.433 31.273c2.46 3.594 2.033 8.427-1.02 11.533L40.58 56.879v.136l-.066-.069-.066.069-.001-.136-13.833-14.073c-2.985-3.037-3.46-7.725-1.18-11.292l.16-.241c2.342-3.42 7.009-4.301 10.436-1.97l4.484 3.049 4.484-3.05c3.428-2.33 8.094-1.449 10.436 1.97z"/>
                </g>
                <path fill="#E98C4C" d="M720 874v103H580V874h140zm-51 25c-14.912 0-27 12.088-27 27s12.088 27 27 27 27-12.088 27-27-12.088-27-27-27z"/>
                <path fill="#AEA3FD" d="M411 771H580V977H411z"/>
                <path fill="#4F3DD1" d="M514.252 668.084v103h-103v-103h103zm-51.5 25c-14.083 0-25.5 11.64-25.5 26s11.417 26 25.5 26 25.5-11.64 25.5-26-11.417-26-25.5-26z"/>
                <path fill="#8172F1" d="M308.584 873.748v102.999c-56.656-.27-102.5-46.28-102.5-103l102.5.001zm103.5 0c0 3.442-.169 6.845-.499 10.2l-.001-10.2z" transform="rotate(90 257.5 925.5)"/>
                <path fill="#8172F1" d="M477 771h103v103h-3c-55.228 0-100-44.772-100-100v-3z"/>
                <path fill="#4F3DD1" d="M309 816H411V977H309z"/>
                <g>
                    <path fill="#FFD87D" d="M5 29h29v95c0 1.657-1.343 3-3 3H8c-1.657 0-3-1.343-3-3V29z" transform="matrix(-1 0 0 1 380 833)"/>
                    <path fill="#7F8DD2" d="M5 56H23V97H5z" transform="matrix(-1 0 0 1 380 833)"/>
                    <path fill="#FFF" d="M3 10H36V29H3z" transform="matrix(-1 0 0 1 380 833)"/>
                    <path fill="#FFF" d="M0 0H39V12H0z" transform="matrix(-1 0 0 1 380 833)"/>
                </g>
                <path fill="#8172F1" d="M106 908c55.228 0 100 44.772 100 100v36H0V908h106zm30.5 30c-20.71 0-37.5 16.79-37.5 37.5s16.79 37.5 37.5 37.5 37.5-16.79 37.5-37.5-16.79-37.5-37.5-37.5z"/>
                <path fill="#FFF" d="M102 806v102l-50.879-.001L51 908H0v-51l.007-.843c.446-27.5 22.657-49.709 50.158-50.15L51 806h51zm-50.5 38c-6.904 0-12.5 5.82-12.5 13s5.596 13 12.5 13S64 864.18 64 857s-5.596-13-12.5-13z" transform="matrix(-1 0 0 1 102 0)"/>
                <g>
                    <path fill="#FFD87D" d="M0 0H111.401V50.727H0z" transform="translate(150 771)"/>
                    <path fill="#FFF" d="M8.664 9.898H50.749V18.558999999999997H8.664zM8.664 21.033H50.749V29.694000000000003H8.664zM96.68 14.847c2.46 3.594 2.033 8.427-1.02 11.533L81.826 40.453v.136l-.066-.069-.066.069v-.136L67.86 26.38c-2.985-3.037-3.46-7.725-1.18-11.292l.16-.241c2.342-3.42 7.009-4.3 10.436-1.97l4.484 3.05 4.484-3.05c3.428-2.33 8.094-1.45 10.436 1.97z" transform="translate(150 771)"/>
                </g>
                <rect width="34" height="34" x="34" y="702" fill="#FFF" rx="8" transform="rotate(45 51 719)"/>
                <g>
                    <path fill="#FFD87D" d="M1.458 3.708l42.308 111.709c.589 1.555 2.078 2.583 3.74 2.583h61.018c2.21 0 4-1.79 4-4 0-.509-.097-1.013-.286-1.485l-43.59-109C68.04 1.995 66.568 1 64.932 1H3.328c-1.104 0-2 .895-2 2 0 .242.044.482.13.708z" transform="translate(580 756)"/>
                    <g>
                        <path fill="#E98C4C" d="M6.739 1.98h2.555c4.008 0 7.55 2.606 8.742 6.433.815 2.615-.645 5.395-3.26 6.21-.477.148-.974.224-1.474.224h-2.555c-4.009 0-7.55-2.607-8.743-6.434-.814-2.615.645-5.395 3.26-6.209.477-.149.974-.224 1.475-.224z" transform="translate(580 756) translate(19.432 9)"/>
                        <path fill="#FFF" d="M7.74 0h2.556c4.008 0 7.55 2.607 8.742 6.434.815 2.614-.645 5.394-3.26 6.209-.477.149-.974.224-1.474.224h-2.555c-4.009 0-7.55-2.606-8.743-6.433-.814-2.615.645-5.395 3.26-6.21C6.743.076 7.24 0 7.74 0z" transform="translate(580 756) translate(19.432 9)"/>
                    </g>
                    <g>
                        <path fill="#E98C4C" d="M6.739 1.98h2.555c4.008 0 7.55 2.606 8.742 6.433.815 2.615-.645 5.395-3.26 6.21-.477.148-.974.224-1.474.224h-2.555c-4.009 0-7.55-2.607-8.743-6.434-.814-2.615.645-5.395 3.26-6.209.477-.149.974-.224 1.475-.224z" transform="translate(580 756) translate(30.432 36)"/>
                        <path fill="#FFF" d="M7.74 0h2.556c4.008 0 7.55 2.607 8.742 6.434.815 2.614-.645 5.394-3.26 6.209-.477.149-.974.224-1.474.224h-2.555c-4.009 0-7.55-2.606-8.743-6.433-.814-2.615.645-5.395 3.26-6.21C6.743.076 7.24 0 7.74 0z" transform="translate(580 756) translate(30.432 36)"/>
                    </g>
                    <g>
                        <path fill="#E98C4C" d="M6.739 1.98h2.555c4.008 0 7.55 2.606 8.742 6.433.815 2.615-.645 5.395-3.26 6.21-.477.148-.974.224-1.474.224h-2.555c-4.009 0-7.55-2.607-8.743-6.434-.814-2.615.645-5.395 3.26-6.209.477-.149.974-.224 1.475-.224z" transform="translate(580 756) translate(41.432 64)"/>
                        <path fill="#FFF" d="M7.74 0h2.556c4.008 0 7.55 2.607 8.742 6.434.815 2.614-.645 5.394-3.26 6.209-.477.149-.974.224-1.474.224h-2.555c-4.009 0-7.55-2.606-8.743-6.433-.814-2.615.645-5.395 3.26-6.21C6.743.076 7.24 0 7.74 0z" transform="translate(580 756) translate(41.432 64)"/>
                    </g>
                    <g>
                        <path fill="#E98C4C" d="M6.739 1.98h2.555c4.008 0 7.55 2.606 8.742 6.433.815 2.615-.645 5.395-3.26 6.21-.477.148-.974.224-1.474.224h-2.555c-4.009 0-7.55-2.607-8.743-6.434-.814-2.615.645-5.395 3.26-6.209.477-.149.974-.224 1.475-.224z" transform="translate(580 756) translate(54.432 91)"/>
                        <path fill="#FFF" d="M7.74 0h2.556c4.008 0 7.55 2.607 8.742 6.434.815 2.614-.645 5.394-3.26 6.209-.477.149-.974.224-1.474.224h-2.555c-4.009 0-7.55-2.606-8.743-6.433-.814-2.615.645-5.395 3.26-6.21C6.743.076 7.24 0 7.74 0z" transform="translate(580 756) translate(54.432 91)"/>
                    </g>
                    <g>
                        <path fill="#E98C4C" d="M6.739 1.98h2.555c4.008 0 7.55 2.606 8.742 6.433.815 2.615-.645 5.395-3.26 6.21-.477.148-.974.224-1.474.224h-2.555c-4.009 0-7.55-2.607-8.743-6.434-.814-2.615.645-5.395 3.26-6.209.477-.149.974-.224 1.475-.224z" transform="translate(580 756) translate(46.432 9)"/>
                        <path fill="#FFF" d="M7.74 0h2.556c4.008 0 7.55 2.607 8.742 6.434.815 2.614-.645 5.394-3.26 6.209-.477.149-.974.224-1.474.224h-2.555c-4.009 0-7.55-2.606-8.743-6.433-.814-2.615.645-5.395 3.26-6.21C6.743.076 7.24 0 7.74 0z" transform="translate(580 756) translate(46.432 9)"/>
                    </g>
                    <g>
                        <path fill="#E98C4C" d="M6.739 1.98h2.555c4.008 0 7.55 2.606 8.742 6.433.815 2.615-.645 5.395-3.26 6.21-.477.148-.974.224-1.474.224h-2.555c-4.009 0-7.55-2.607-8.743-6.434-.814-2.615.645-5.395 3.26-6.209.477-.149.974-.224 1.475-.224z" transform="translate(580 756) translate(57.432 36)"/>
                        <path fill="#FFF" d="M7.74 0h2.556c4.008 0 7.55 2.607 8.742 6.434.815 2.614-.645 5.394-3.26 6.209-.477.149-.974.224-1.474.224h-2.555c-4.009 0-7.55-2.606-8.743-6.433-.814-2.615.645-5.395 3.26-6.21C6.743.076 7.24 0 7.74 0z" transform="translate(580 756) translate(57.432 36)"/>
                    </g>
                    <g>
                        <path fill="#E98C4C" d="M6.739 1.98h2.555c4.008 0 7.55 2.606 8.742 6.433.815 2.615-.645 5.395-3.26 6.21-.477.148-.974.224-1.474.224h-2.555c-4.009 0-7.55-2.607-8.743-6.434-.814-2.615.645-5.395 3.26-6.209.477-.149.974-.224 1.475-.224z" transform="translate(580 756) translate(68.432 64)"/>
                        <path fill="#FFF" d="M7.74 0h2.556c4.008 0 7.55 2.607 8.742 6.434.815 2.614-.645 5.394-3.26 6.209-.477.149-.974.224-1.474.224h-2.555c-4.009 0-7.55-2.606-8.743-6.433-.814-2.615.645-5.395 3.26-6.21C6.743.076 7.24 0 7.74 0z" transform="translate(580 756) translate(68.432 64)"/>
                    </g>
                    <g>
                        <path fill="#E98C4C" d="M6.739 1.98h2.555c4.008 0 7.55 2.606 8.742 6.433.815 2.615-.645 5.395-3.26 6.21-.477.148-.974.224-1.474.224h-2.555c-4.009 0-7.55-2.607-8.743-6.434-.814-2.615.645-5.395 3.26-6.209.477-.149.974-.224 1.475-.224z" transform="translate(580 756) translate(80.432 91)"/>
                        <path fill="#FFF" d="M7.74 0h2.556c4.008 0 7.55 2.607 8.742 6.434.815 2.614-.645 5.394-3.26 6.209-.477.149-.974.224-1.474.224h-2.555c-4.009 0-7.55-2.606-8.743-6.433-.814-2.615.645-5.395 3.26-6.21C6.743.076 7.24 0 7.74 0z" transform="translate(580 756) translate(80.432 91)"/>
                    </g>
                </g>
            </g>
        </g>
    </g>
</svg>
