<svg xmlns="http://www.w3.org/2000/svg" xmlns:xlink="http://www.w3.org/1999/xlink" width="533" height="239"><defs><rect id="kq39ko4h7a" width="533" height="239" x="0" y="0" rx="20"/></defs><g fill="none" fill-rule="evenodd"><mask id="l8hlis4rab" fill="#fff"><use xlink:href="#kq39ko4h7a"/></mask><use fill="#F6F6FB" xlink:href="#kq39ko4h7a"/><g style="mix-blend-mode:overlay" mask="url(#l8hlis4rab)"><path fill="#7F8DD2" d="M411.636 119.224h119.089v118.938H411.636z"/><path fill="#121212" d="M411.636.286h119.089v118.938H411.636z"/><path fill="#4647C6" d="M529.74 238.155c-32.43-.526-58.559-26.946-58.559-59.462 0-32.844 26.659-59.469 59.545-59.469v118.939zM292.547 119.224h119.089v118.938H292.547z"/><path fill="#FFF" d="M292.549 238.163v-59.47l.984.008c32.431.526 58.56 26.946 58.56 59.462h-59.544z"/><path fill="#4647C6" d="M411.675.249l59.47-.001-.009.985c-.525 32.431-26.946 58.56-59.461 58.56V.249z"/><path fill="#262C7F" d="M411.636 59.755v59.47h-59.544v-59.47h59.544zm-29.772 14.867c-8.221 0-14.886 6.657-14.886 14.868 0 8.21 6.665 14.867 14.886 14.867S396.75 97.7 396.75 89.49c0-8.211-6.665-14.868-14.886-14.868z"/><path fill="#7273F1" d="M411.598 59.792h-59.47l.009-.984c.525-32.432 26.946-58.56 59.461-58.56v59.544z"/><path fill="#121212" d="M173.458 119.224h119.089v118.938H173.458z"/><path fill="#FFF" d="M60.285 238.2l-59.47.001.008-.985c.526-32.431 26.946-58.56 59.462-58.56V238.2zM233.078 297.708v-59.545c0-32.885 26.626-59.545 59.47-59.545h59.469v119.09H233.078z"/><ellipse cx="292.547" cy="238.163" fill="#121212" rx="14.886" ry="14.867"/><path fill="#4647C6" d="M530.233 59.751c-16.215-.262-29.28-13.473-29.28-29.73 0-16.422 13.33-29.735 29.773-29.735v59.47z"/><path fill="#FFD87D" d="M532.744 149.405c-16.46 0-29.803 13.3-29.803 29.705 0 16.405 13.343 29.705 29.803 29.705"/></g></g></svg>

