<svg xmlns="http://www.w3.org/2000/svg" xmlns:xlink="http://www.w3.org/1999/xlink" width="32" height="49">
    <g transform="translate(-165 -60)" fill="none" fill-rule="evenodd">
        <g transform="translate(165 72.414)">
            <path fill="#6236ff" d="M25.974 25.55c-6.832 1.515-12.82.68-17.801-2.494-3.103-1.977-4.858-4.31-5.408-5.117v-3.775c1.368 2.125 3.366 4.414 6.25 6.214 3.425 2.14 7.476 3.212 12.11 3.212 2.14 0 4.404-.23 6.787-.687a10.148 10.148 0 01-1.938 2.648zm-10.09 6.638l-6.593-3.922a17.66 17.66 0 01-2.876-2.135l-.361-.33a10.12 10.12 0 01-1.819-2.222 22.944 22.944 0 002.323 1.72c2.88 1.861 7.245 3.73 13.163 3.73.503 0 1.02-.015 1.546-.043l-5.383 3.202zM4.316 3.401a3.415 3.415 0 011.883-.573c.46 0 .924.094 1.37.286L12.8 5.356a6.6 6.6 0 00-2.571 3.79 6.595 6.595 0 001.23 5.718 5.545 5.545 0 004.379 2.12h.038a5.544 5.544 0 004.388-2.177 6.772 6.772 0 001.189-5.878A6.787 6.787 0 0019.2 5.396l4.967-2.188a3.4 3.4 0 013.272.264 3.376 3.376 0 011.564 2.878v11.994c0 .515-.041 1.026-.118 1.53-7.485 1.716-13.663 1.113-18.37-1.811C4.727 14.466 3 8.396 2.766 7.47v-1.2a3.38 3.38 0 011.55-2.869zm10.806 3.793l.969-.427.35.15a4.048 4.048 0 012.336 2.71c.32 1.222.062 2.5-.709 3.502a2.79 2.79 0 01-2.21 1.098h-.02a2.792 2.792 0 01-2.205-1.068 3.853 3.853 0 01-.72-3.346 3.866 3.866 0 012.21-2.62zm13.826-6.032a6.205 6.205 0 00-5.899-.476L16.075 3.76 8.661.58a6.206 6.206 0 00-5.867.517A6.174 6.174 0 000 6.269v12.075c0 3.598 1.525 7.057 4.185 9.489l.362.33a20.234 20.234 0 003.327 2.47l7.302 4.345a1.381 1.381 0 001.417 0l7.301-4.344a20.422 20.422 0 003.327-2.47l.362-.33v-.001a12.889 12.889 0 004.185-9.489V6.35a6.166 6.166 0 00-2.82-5.188z" />
        </g>
        <g transform="translate(174.545 60)">
            <path fill="#6236ff" d="M6.34 2.986a3.514 3.514 0 013.514 3.506 3.513 3.513 0 01-3.515 3.504 3.515 3.515 0 01-3.516-3.504 3.516 3.516 0 013.516-3.506m0 9.768c3.463 0 6.28-2.81 6.28-6.262 0-3.454-2.817-6.263-6.28-6.263S.06 3.039.06 6.492c0 3.452 2.817 6.262 6.28 6.262" />
        </g>
    </g>
</svg>
