<svg xmlns="http://www.w3.org/2000/svg" xmlns:xlink="http://www.w3.org/1999/xlink" width="32" height="49" viewBox="0 0 32 49">
    <defs>
        <path id="nuxbinolwb" d="M0 0.075L31.768 0.075 31.768 35.172 0 35.172z"/>
        <path id="132x7zv78d" d="M0.058 0.229L12.62 0.229 12.62 12.754 0.058 12.754z"/>
        <filter id="ak21tu7ria">
            <feColorMatrix in="SourceGraphic" values="0 0 0 0 0.384314 0 0 0 0 0.211765 0 0 0 0 1.000000 0 0 0 1.000000 0"/>
        </filter>
    </defs>
    <g fill="none" fill-rule="evenodd">
        <g filter="url(#ak21tu7ria)" transform="translate(-165 -60)">
            <g>
                <g transform="translate(165 60) translate(0 12.414)">
                    <mask id="tyaglz1ysc" fill="#fff">
                        <use xlink:href="#nuxbinolwb"/>
                    </mask>
                    <path fill="#100837" d="M25.974 25.55c-6.832 1.515-12.82.68-17.801-2.494-3.103-1.977-4.858-4.31-5.408-5.117v-3.775c1.368 2.125 3.366 4.414 6.25 6.214 3.425 2.14 7.476 3.212 12.11 3.212 2.14 0 4.404-.23 6.787-.687-.494.975-1.147 1.87-1.938 2.648zm-10.09 6.638l-6.593-3.922c-1.027-.611-1.995-1.33-2.876-2.135l-.361-.33c-.716-.655-1.324-1.406-1.819-2.222.683.575 1.455 1.159 2.323 1.72 2.88 1.861 7.245 3.73 13.163 3.73.503 0 1.02-.015 1.546-.043l-5.383 3.202zM4.316 3.401c.578-.38 1.227-.573 1.883-.573.46 0 .924.094 1.37.286L12.8 5.356c-1.272.91-2.184 2.237-2.571 3.79-.501 2.008-.052 4.092 1.23 5.718 1.066 1.349 2.66 2.12 4.379 2.12h.038c1.734-.011 3.333-.805 4.388-2.177 1.293-1.684 1.726-3.826 1.189-5.878-.37-1.41-1.16-2.633-2.253-3.533l4.967-2.188c1.086-.477 2.278-.382 3.272.264.994.646 1.564 1.694 1.564 2.878v11.994c0 .515-.041 1.026-.118 1.53-7.485 1.716-13.663 1.113-18.37-1.811C4.727 14.466 3 8.396 2.766 7.47v-1.2c0-1.176.565-2.222 1.55-2.869zm10.806 3.793l.969-.427.35.15c1.164.5 2.016 1.487 2.336 2.71.32 1.222.062 2.5-.709 3.502-.531.692-1.336 1.092-2.21 1.098h-.02c-.866 0-1.669-.389-2.205-1.068-.751-.951-1.014-2.17-.72-3.346.292-1.175 1.098-2.13 2.21-2.62zm13.826-6.032C27.182.015 24.977-.163 23.049.686L16.075 3.76 8.661.58c-1.924-.825-4.118-.632-5.867.517C1.044 2.248 0 4.18 0 6.269v12.075c0 3.598 1.525 7.057 4.185 9.489l.362.33c1.019.933 2.138 1.764 3.327 2.47l7.302 4.345c.218.13.463.195.708.195.245 0 .49-.065.709-.195l7.301-4.344c1.189-.708 2.309-1.539 3.327-2.47l.362-.33v-.001c2.66-2.432 4.185-5.891 4.185-9.489V6.35c0-2.102-1.054-4.041-2.82-5.188z" mask="url(#tyaglz1ysc)"/>
                </g>
                <g transform="translate(165 60) translate(9.545)">
                    <mask id="rslq10ocqe" fill="#fff">
                        <use xlink:href="#132x7zv78d"/>
                    </mask>
                    <path fill="#100837" d="M6.34 2.986c1.938 0 3.514 1.573 3.514 3.506 0 1.932-1.576 3.504-3.515 3.504-1.938 0-3.516-1.572-3.516-3.504 0-1.933 1.578-3.506 3.516-3.506m0 9.768c3.463 0 6.28-2.81 6.28-6.262 0-3.454-2.817-6.263-6.28-6.263S.06 3.039.06 6.492c0 3.452 2.817 6.262 6.28 6.262" mask="url(#rslq10ocqe)"/>
                </g>
            </g>
        </g>
    </g>
</svg>
