<svg xmlns="http://www.w3.org/2000/svg" width="32" height="32" viewBox="0 0 32 32">
    <g fill="none" fill-rule="evenodd">
        <g>
            <g>
                <g transform="translate(-402 -411) translate(393 403) translate(9 8)">
                    <g>
                        <g fill="#4f3dd1" fill-rule="nonzero">
                            <path d="M6.667 0C2.97 0 0 2.97 0 6.667c0 3.697 2.97 6.666 6.667 6.666 3.697 0 6.666-2.97 6.666-6.666C13.333 2.97 10.363 0 6.667 0zm3.848 4.576l-4.848 5.03c-.06.06-.122.091-.212.091-.091 0-.182-.03-.213-.09L2.88 7.06 2.819 7c-.061-.06-.092-.152-.092-.212s.03-.152.091-.212l.424-.424c.122-.122.303-.122.425 0l.03.03L5.364 7.97c.06.06.151.06.212 0l4.06-4.212h.03c.122-.122.304-.122.425 0l.424.424c.121.09.121.273 0 .394z" transform="translate(9.333 9.333)"/>
                        </g>
                    </g>
                </g>
            </g>
        </g>
    </g>
</svg>
