<svg xmlns="http://www.w3.org/2000/svg" width="62" height="64" viewBox="0 0 62 64">
    <defs>
        <linearGradient id="x9m3ruzzha" x1="50%" x2="50%" y1="100%" y2="0%">
            <stop offset="0%" stop-color="gray"/>
            <stop offset="100%" stop-color="#D9D8DB"/>
        </linearGradient>
        <linearGradient id="xgb748p4sb" x1="16.635%" x2="62.823%" y1="94.783%" y2="-10.902%">
            <stop offset="0%" stop-color="#AAA"/>
            <stop offset="100%" stop-color="#FFF"/>
        </linearGradient>
    </defs>
    <g fill="none" fill-rule="evenodd">
        <path fill="url(#x9m3ruzzha)" d="M4.992 37.587L3.46 47.46l6.57 3.028c.998.46 2.153.428 3.125-.086l6.504-3.44c1.722-.91 3.856-.252 4.767 1.47.21.398.343.834.39 1.282l1.312 12.535 6.273 1.49c.714.17 1.463.113 2.142-.163l9.872-4.006c1.612-.654 2.506-2.385 2.107-4.078L43.04 40.716c-.388-1.65.451-3.343 2-4.032l13.97-6.218c1.68-.747 2.504-2.66 1.893-4.394l-3.602-10.23c-.188-.534-.503-1.016-.917-1.403l-4.642-4.346-11.134 7.154c-1.64 1.053-3.822.577-4.875-1.062-.2-.313-.351-.655-.445-1.015L33.07 6.672c-.256-.979-.92-1.8-1.823-2.257L26.13 1.831l-7.514 7.595c-.85.86-1.2 2.094-.93 3.272l2.846 12.375c.364 1.581-.398 3.206-1.846 3.938l-11.8 5.968c-1.014.514-1.72 1.484-1.893 2.608z" transform="translate(-405 -467) translate(52 108) translate(83 217) translate(31 112) translate(0 12) translate(239 18)"/>
        <path fill="url(#xgb748p4sb)" d="M.352 36.142l1.219 8.654c.271 1.929 2.056 3.273 3.985 3 .262-.036.519-.102.766-.197l9.366-3.575c1.82-.695 3.859.217 4.554 2.037.05.134.094.27.128.41l3.283 13.25c.468 1.89 2.381 3.044 4.272 2.576.111-.028.221-.061.33-.1l10.552-3.736c1.665-.59 2.637-2.319 2.276-4.047l-3.56-17.04c-.338-1.615.49-3.249 1.992-3.932l15.422-7.017c1.695-.771 2.498-2.728 1.834-4.468L52.808 11.57c-.694-1.82-2.733-2.733-4.553-2.038-.088.033-.175.07-.26.111l-12.306 5.865c-1.758.838-3.863.092-4.702-1.667-.085-.18-.155-.365-.21-.556l-2.562-9.048c-.53-1.874-2.48-2.963-4.355-2.432-.25.07-.49.168-.718.291l-8.546 4.626c-1.394.755-2.113 2.345-1.76 3.89l2.77 12.107c.362 1.578-.397 3.199-1.84 3.932l-11.52 5.854C.903 33.188.141 34.65.352 36.142z" transform="translate(-405 -467) translate(52 108) translate(83 217) translate(31 112) translate(0 12) translate(239 18)"/>
    </g>
</svg>
