<svg xmlns="http://www.w3.org/2000/svg" width="24" height="23" viewBox="0 0 24 23">
  <path fill="#ECEFF1" d="M23.25 19.412h-10.5c-.414 0-.75-.334-.75-.746V3.746c0-.412.336-.746.75-.746h10.5c.414 0 .75.334.75.746v14.92c0 .412-.336.746-.75.746z" transform="translate(-183 -492) translate(52 108) translate(112 370) translate(19 14)"/>
  <path fill="#4F3DD1" d="M3.75 1.506h-3C.336 1.506 0 1.17 0 .753 0 .338.336.001.75.001h3c.414 0 .75.337.75.752 0 .416-.336.753-.75.753zM3.75 4.518h-3c-.414 0-.75-.337-.75-.753 0-.415.336-.753.75-.753h3c.414 0 .75.338.75.753 0 .416-.336.753-.75.753zM3.75 7.53h-3c-.414 0-.75-.337-.75-.753s.336-.753.75-.753h3c.414 0 .75.337.75.753s-.336.753-.75.753zM3.75 10.542h-3c-.414 0-.75-.338-.75-.753 0-.416.336-.753.75-.753h3c.414 0 .75.337.75.753 0 .415-.336.753-.75.753zM8.25 1.506h-1.5c-.414 0-.75-.337-.75-.753 0-.415.336-.752.75-.752h1.5c.414 0 .75.337.75.752 0 .416-.336.753-.75.753zM8.25 4.518h-1.5c-.414 0-.75-.337-.75-.753 0-.415.336-.753.75-.753h1.5c.414 0 .75.338.75.753 0 .416-.336.753-.75.753zM8.25 7.53h-1.5c-.414 0-.75-.337-.75-.753s.336-.753.75-.753h1.5c.414 0 .75.337.75.753s-.336.753-.75.753zM8.25 10.542h-1.5c-.414 0-.75-.338-.75-.753 0-.416.336-.753.75-.753h1.5c.414 0 .75.337.75.753 0 .415-.336.753-.75.753z" transform="translate(-183 -492) translate(52 108) translate(112 370) translate(19 14) translate(12 5.824)"/>
  <path fill="#4F3DD1" d="M13.315.173c-.172-.142-.403-.203-.62-.159L.615 2.256C.258 2.32 0 2.629 0 2.989v16.435c0 .358.258.668.616.733l12.078 2.241c.046.01.093.014.14.014.174 0 .345-.06.481-.172.174-.142.273-.354.273-.575V.748c0-.223-.1-.433-.273-.575z" transform="translate(-183 -492) translate(52 108) translate(112 370) translate(19 14)"/>
  <path fill="#FAFAFA" d="M10.227 13.573l-2.356-2.725 2.383-3.1c.253-.33.194-.803-.13-1.06-.323-.256-.79-.196-1.046.132L6.872 9.69l-1.86-2.15c-.273-.317-.744-.346-1.05-.071-.31.274-.342.75-.07 1.063l2.048 2.37-2.077 2.703c-.253.33-.194.803.13 1.06.137.106.3.158.459.158.222 0 .44-.1.588-.292l1.9-2.473 2.167 2.505c.147.172.353.26.56.26.174 0 .349-.062.49-.187.31-.275.341-.752.07-1.064z" transform="translate(-183 -492) translate(52 108) translate(112 370) translate(19 14)"/>
</svg>
